<svg width="24.004181" height="24.000000" viewBox="0 0 24.0042 24" fill="none" xmlns="http://www.w3.org/2000/svg" xmlns:xlink="http://www.w3.org/1999/xlink">
	<desc>
			Created with Pixso.
	</desc>
	<defs/>
	<path id="Vector" d="M17.15 20.25L9.89 20.25C6.78 20.25 4.26 17.72 4.26 14.62L4.26 8.85C4.26 5.97 2.82 3.3 0.42 1.72C-0.02 1.43 -0.14 0.85 0.15 0.42C0.43 -0.02 1.02 -0.14 1.45 0.15C2.82 1.06 3.94 2.25 4.73 3.63C4.91 3.82 6.3 5.29 8.57 5.29L19.37 5.29C22.31 5.24 24.62 8.19 23.85 11.04L22.61 15.99C21.98 18.49 19.73 20.25 17.15 20.25ZM5.9 6.64C6.06 7.36 6.14 8.1 6.14 8.85L6.14 14.62C6.14 16.69 7.82 18.37 9.89 18.37L17.15 18.37C18.87 18.37 20.37 17.2 20.79 15.53L22.03 10.58C22.49 8.89 21.12 7.13 19.37 7.17L8.57 7.17C7.54 7.17 6.65 6.94 5.9 6.64ZM9.42 22.82C9.42 22.18 8.89 21.65 8.25 21.65C6.69 21.71 6.69 23.93 8.25 24C8.89 24 9.42 23.47 9.42 22.82ZM18.75 22.82C18.75 22.18 18.22 21.65 17.57 21.65C16.02 21.71 16.02 23.93 17.57 24C18.22 24 18.75 23.47 18.75 22.82ZM20.31 9.98C20.31 9.46 19.89 9.04 19.37 9.04L8.95 9.04C7.7 9.09 7.71 10.87 8.95 10.92L19.37 10.92C19.89 10.92 20.31 10.5 20.31 9.98Z" fill="#3D3D3D" fill-opacity="1.000000" fill-rule="nonzero"/>
</svg>
