<svg width="14" height="17" viewBox="0 0 14 17" fill="none" xmlns="http://www.w3.org/2000/svg">
<path d="M7.14603 2.69385C7.3482 2.69385 7.51527 2.88195 7.54172 3.126L7.54536 3.19385L7.54536 13.1938C7.54536 13.47 7.36658 13.6938 7.14603 13.6938C6.94387 13.6938 6.77679 13.5057 6.75035 13.2617L6.7467 13.1938L6.7467 3.19385C6.7467 2.91771 6.92549 2.69385 7.14603 2.69385Z" fill="#727272"/>
<path d="M10.0706 8.80785C10.2263 8.61217 10.4791 8.61149 10.6354 8.80633C10.7775 8.98346 10.7908 9.2612 10.6752 9.45725L10.6366 9.51344L7.42919 13.5468C7.2873 13.7252 7.06468 13.7414 6.9081 13.5955L6.86326 13.5468L3.65532 9.51347C3.49969 9.3178 3.50022 9.00122 3.65649 8.80636C3.79855 8.62922 4.02042 8.61365 4.17651 8.7593L4.22122 8.80782L7.14637 12.4852L10.0706 8.80785Z" fill="#727272"/>
</svg>
